<svg width="26" height="26" viewBox="0 0 26 26" fill="none" xmlns="http://www.w3.org/2000/svg">
<path fill-rule="evenodd" clip-rule="evenodd" d="M23.0571 9.7H2.96905C2.44524 9.7 2.02619 9.25842 2 8.70645C2 4.26308 5.69286 2 13 2C20.3071 2 24 4.26308 24 8.70645C24 9.25842 23.581 9.7 23.0571 9.7ZM25 13.55C25 12.6362 24.2674 11.9 23.3579 11.9H2.64211C1.73263 11.9 1 12.6362 1 13.55C1 14.4638 1.73263 15.2 2.64211 15.2H23.3579C24.2674 15.2 25 14.4638 25 13.55ZM23.0321 17.4H2.94174C2.41855 17.4 2 17.8693 2 18.456V19.5707C2 22.0053 3.77883 24 5.95006 24H20.0499C22.2212 24 24 22.0053 24 19.5707V18.456C23.9738 17.8693 23.5553 17.4 23.0321 17.4Z" fill="#F2F2F3"/>
<rect x="0.5" y="0.5" width="25" height="25" stroke="#4C4CFF" stroke-dasharray="2 2"/>
</svg>
